<?xml version="1.0" encoding="UTF-8"?>
<svg id="Layer_2" data-name="Layer 2" xmlns="http://www.w3.org/2000/svg" viewBox="0 0 441.24 115.26">
  <defs>
    <style>
      .cls-1 {
        fill: #f2f1f1;
      }
    </style>
  </defs>
  <g id="Layer_1-2" data-name="Layer 1">
    <g>
      <path class="cls-1" d="M353.3,25.48l-9.72,53.76h-14.41l1.22-6.73c-6.58,4.3-15.18,7.62-25.94,7.62-3.5,0-7.23-.33-11.19-1.11-2.94,1.11-6.11,1.66-9.38,1.66-15.26,0-12.89-16.41-2.94-16.41,1.02,0,2.26.23,3.5.67,2.71.88,5.2,1.66,7.57,2.32,6.9-4.76,11.87-14.52,11.76-22.5-.11-6.54-3.5-9.98-8.82-9.98-14.58,0-25.43,22.16-28.48,32.92h-.11l-7.21,26.17-4.32,15.65-1.58,5.73h-14.02l1.6-5.73,4.35-15.65,5.68-20.42c-6.37,3.82-14.46,6.67-24.41,6.67-3.5,0-7.23-.33-11.19-1.11-2.94,1.11-6.1,1.66-9.38,1.66-4.1,0-6.92-1.18-8.68-2.91-.21-.2-.39-.41-.57-.63-3.9-4.83-.65-12.86,6.31-12.86,1.02,0,2.26.23,3.5.67,2.71.88,5.19,1.66,7.57,2.32,6.9-4.76,11.86-14.52,11.75-22.5-.11-6.54-3.5-9.98-8.81-9.98-14.58,0-25.44,22.16-28.48,32.92h-.11l-7.22,26.17-4.32,15.65-1.58,5.73h-14.02l1.6-5.73,4.35-15.65,19.48-70.06h13.23l-3.28,11.86c6.9-7.42,15.48-12.75,25.43-12.75,11.19,0,17.97,7.43,17.97,19.29,0,9.31-4.18,19.4-10.85,27.05,13.92-.44,21.26-7.99,27.35-16.13l8.15-29.31h13.22l-3.28,11.86c6.9-7.42,15.49-12.75,25.44-12.75,11.19,0,17.97,7.43,17.97,19.29,0,9.31-4.18,19.4-10.85,27.05,13.3-.42,20.6-7.34,26.53-15.06l5.2-28.72h14.41Z"/>
      <polygon class="cls-1" points="357.45 1.82 355.16 15.21 340.74 15.21 343.04 1.82 357.45 1.82"/>
      <path class="cls-1" d="M433.55,64.14h-.52c-3.73,0-6.93,2.63-7.58,6.23-.84,4.62,2.79,8.87,7.58,8.87h.52c3.73,0,6.93-2.63,7.58-6.23.84-4.62-2.79-8.87-7.58-8.87"/>
      <path class="cls-1" d="M403.09,43.9h-.22c.22-1.71.44-3.32.44-4.82,0-9.32-5.9-14.67-16.38-14.67-16.7,0-27.73,14.24-27.73,34.8,0,13.17,6.22,21.09,17.58,21.09,12.23,0,20.85-7.28,23.04-19.59h.22l-3.28,18.52h14.41l9.61-53.75h-14.41l-3.28,18.42ZM402.33,52.36c-1.75,9.85-8.08,16.7-16.81,16.7-7.21,0-11.25-4.82-11.25-12.85,0-12.21,6.77-20.67,17.25-20.67,7.32,0,11.35,4.82,11.35,12.21,0,1.5-.22,2.78-.55,4.6"/>
      <path class="cls-1" d="M44.11,0H14.19L0,79.23h15.07l5.35-29.55h14.74c21.4,0,34.83-11.35,34.83-29.23C69.99,7.71,60.71,0,44.11,0M38,38.22h-15.5l4.8-26.77h15.61c7.21,0,11.25,4.07,11.25,10.71,0,9.74-6.33,16.06-16.16,16.06"/>
      <path class="cls-1" d="M110.83,24.41c-10.37,0-18.12,8.57-20.75,23.24h-.22l4.04-22.16h-14.41l-9.72,53.75h14.41l4.37-24.3c2.07-11.35,8.3-18.1,16.7-18.1,2.73,0,5.35.75,7.21,1.93l6.55-12.64c-2.07-1.07-5.02-1.71-8.19-1.71"/>
      <path class="cls-1" d="M173.49,49.94c1.56-13.94-6.08-23.17-21.49-24.83-20.62-2.22-35.44,9.43-37.69,29.55-1.57,14.05,6.18,23.29,21.48,24.93,20.84,2.24,35.45-9.54,37.7-29.65M139.1,68.65c-7.27-.78-10.64-5.99-9.75-13.98,1.36-12.13,9.03-19.82,19.45-18.7,7.27.78,10.64,5.99,9.75,13.98-1.37,12.24-8.92,19.83-19.45,18.69"/>
    </g>
  </g>
</svg>