<?xml version="1.0" encoding="UTF-8"?>
<svg id="Layer_2" data-name="Layer 2" xmlns="http://www.w3.org/2000/svg" viewBox="0 0 319.61 134.47">
  <defs>
    <style>
      .cls-1 {
        fill: #1e1e1e;
      }
    </style>
  </defs>
  <g id="Layer_1-2" data-name="Layer 1">
    <g>
      <path class="cls-1" d="M242.45,67.48c9.52-11.14,15.5-25.83,15.5-39.39,0-17.27-9.69-28.09-25.67-28.09-14.21,0-26.47,7.75-36.32,18.57l4.68-17.27h-18.89l-11.65,42.7c-8.68,11.85-19.16,22.85-39.04,23.49,9.52-11.14,15.5-25.83,15.5-39.39,0-17.27-9.69-28.09-25.67-28.09-14.21,0-26.47,7.75-36.32,18.57l4.68-17.27h-18.89l-36.32,133.18h20.02l18.73-69.25h.16c4.36-15.66,19.85-47.95,40.68-47.95,7.59,0,12.43,5,12.59,14.53.16,11.62-6.94,25.83-16.79,32.77-3.39-.97-6.94-2.1-10.82-3.39-1.78-.65-3.55-.97-5-.97-14.21,0-17.6,23.89,4.2,23.89,4.68,0,9.2-.81,13.4-2.42,5.65,1.13,10.98,1.61,15.98,1.61,14.19,0,25.75-4.12,34.84-9.69l-16.6,60.86h20.02l18.73-69.25h.16c4.36-15.66,19.85-47.95,40.68-47.95,7.59,0,12.43,5,12.59,14.53.16,11.62-6.94,25.83-16.79,32.77-3.39-.97-6.94-2.1-10.82-3.39-1.78-.65-3.55-.97-5-.97-14.21,0-17.6,23.89,4.2,23.89,4.68,0,9.2-.81,13.4-2.42,5.65,1.13,10.98,1.61,15.98,1.61,31.15,0,49.72-19.86,56.98-31.32l-13.88-8.23c-8.72,11.94-19.21,23.08-39.23,23.73"/>
      <path class="cls-1" d="M308.61,61.15h-.75c-5.33,0-9.89,3.82-10.82,9.07-1.19,6.73,3.99,12.91,10.82,12.91h.75c5.33,0,9.89-3.82,10.82-9.07,1.19-6.73-3.99-12.91-10.82-12.91"/>
      <path class="cls-1" d="M7.14,103.95h24.31l-6.23,22.81H0l7.14-22.81ZM67.44,126.76h69.17l6.23-22.81h-69.24l-6.16,22.81ZM184.94,103.95l-6.16,22.81h136.81l3.73-21.13v-1.68h-134.38Z"/>
    </g>
  </g>
</svg>