<?xml version="1.0" encoding="UTF-8"?>
<svg id="Layer_2" data-name="Layer 2" xmlns="http://www.w3.org/2000/svg" viewBox="0 0 375.02 157.78">
  <defs>
    <style>
      .cls-1 {
        fill: #232323;
      }

      .cls-2 {
        fill: #8bcda5;
      }
    </style>
  </defs>
  <g id="Layer_1-2" data-name="Layer 1">
    <g>
      <path class="cls-1" d="M284.48,79.18c11.17-13.07,18.18-30.31,18.18-46.22,0-20.27-11.37-32.96-30.12-32.96-16.67,0-31.06,9.09-42.62,21.78l5.49-20.27h-22.16l-13.66,50.11c-10.19,13.9-22.49,26.81-45.82,27.56,11.18-13.07,18.18-30.31,18.18-46.22,0-20.27-11.36-32.96-30.12-32.96-16.67,0-31.06,9.09-42.62,21.78l5.49-20.27h-22.16l-42.62,156.27h23.49l21.97-81.26h.19c5.11-18.37,23.3-56.26,47.74-56.26,8.9,0,14.58,5.87,14.77,17.05.19,13.64-8.14,30.31-19.7,38.45-3.98-1.13-8.15-2.46-12.69-3.98-2.08-.76-4.17-1.14-5.87-1.14-16.67,0-20.65,28.03,4.93,28.03,5.49,0,10.8-.95,15.72-2.84,6.63,1.33,12.88,1.9,18.75,1.9,16.65,0,30.22-4.84,40.88-11.37l-19.48,71.41h23.49l21.97-81.26h.19c5.11-18.37,23.3-56.26,47.73-56.26,8.9,0,14.59,5.87,14.78,17.05.19,13.64-8.14,30.31-19.7,38.45-3.98-1.13-8.15-2.46-12.69-3.98-2.08-.76-4.17-1.14-5.87-1.14-16.67,0-20.65,28.03,4.93,28.03,5.49,0,10.8-.95,15.72-2.84,6.63,1.33,12.88,1.9,18.76,1.9,36.56,0,58.34-23.3,66.86-36.75l-16.29-9.66c-10.23,14.02-22.54,27.08-46.03,27.84"/>
      <path class="cls-1" d="M362.12,71.75h-.88c-6.26,0-11.61,4.49-12.7,10.65-1.4,7.9,4.68,15.15,12.7,15.15h.88c6.25,0,11.61-4.49,12.7-10.65,1.4-7.9-4.68-15.15-12.7-15.15"/>
      <path class="cls-2" d="M8.38,121.98h28.53l-7.31,26.76H0l8.38-26.76ZM79.14,148.74h81.17l7.31-26.76h-81.25l-7.23,26.76ZM217.01,121.98l-7.23,26.76h160.53l4.38-24.79v-1.97h-157.67Z"/>
    </g>
  </g>
</svg>