<?xml version="1.0" encoding="UTF-8"?>
<svg id="Layer_2" data-name="Layer 2" xmlns="http://www.w3.org/2000/svg" xmlns:xlink="http://www.w3.org/1999/xlink" viewBox="0 0 435.31 183.32">
  <defs>
    <style>
      .cls-1 {
        fill: none;
      }

      .cls-2 {
        fill: #f2f1f1;
      }

      .cls-3 {
        fill: url(#linear-gradient);
      }

      .cls-4 {
        clip-path: url(#clippath);
      }
    </style>
    <clipPath id="clippath">
      <path class="cls-1" d="M9.74,141.71L0,172.81h34.39l8.49-31.09H9.74ZM100.34,141.71l-8.4,31.09h94.3l8.49-31.09h-94.39ZM252.12,141.71l-8.4,31.09h186.5l5.09-28.8v-2.29h-183.19Z"/>
    </clipPath>
    <linearGradient id="linear-gradient" x1="2086.6" y1="6625.09" x2="2088.62" y2="6625.09" gradientTransform="translate(-450058.54 1429120.48) scale(215.69 -215.69)" gradientUnits="userSpaceOnUse">
      <stop offset="0" stop-color="#fae23e"/>
      <stop offset="1" stop-color="#6dccdd"/>
    </linearGradient>
  </defs>
  <g id="Layer_1-2" data-name="Layer 1">
    <g>
      <path class="cls-2" d="M330.52,91.99c12.98-15.18,21.13-35.21,21.13-53.7,0-23.55-13.2-38.29-34.99-38.29-19.36,0-36.09,10.56-49.51,25.31l6.38-23.55h-25.75l-15.88,58.21c-11.83,16.16-26.13,31.14-53.23,32.02,12.98-15.18,21.13-35.21,21.13-53.7,0-23.55-13.21-38.29-34.99-38.29-19.36,0-36.09,10.56-49.51,25.31l6.38-23.55h-25.75l-49.51,181.55h27.29l25.53-94.41h.22c5.94-21.35,27.07-65.36,55.46-65.36,10.34,0,16.95,6.82,17.17,19.81.22,15.85-9.46,35.21-22.89,44.67-4.62-1.32-9.46-2.86-14.75-4.62-2.42-.88-4.84-1.32-6.82-1.32-19.36,0-23.99,32.57,5.72,32.57,6.38,0,12.55-1.1,18.27-3.3,7.7,1.54,14.97,2.2,21.79,2.2,19.34,0,35.11-5.62,47.5-13.21l-22.63,82.97h27.29l25.53-94.41h.22c5.94-21.35,27.07-65.36,55.46-65.36,10.34,0,16.94,6.82,17.16,19.81.22,15.85-9.46,35.21-22.89,44.67-4.62-1.32-9.46-2.86-14.75-4.62-2.42-.88-4.84-1.32-6.82-1.32-19.36,0-23.99,32.57,5.72,32.57,6.38,0,12.54-1.1,18.26-3.3,7.7,1.54,14.97,2.2,21.79,2.2,42.47,0,67.78-27.07,77.69-42.69l-18.93-11.22c-11.88,16.29-26.19,31.47-53.48,32.35"/>
      <g class="cls-4">
        <rect class="cls-3" y="141.71" width="435.31" height="31.09"/>
      </g>
    </g>
  </g>
</svg>