<?xml version="1.0" encoding="UTF-8"?>
<svg id="Layer_2" data-name="Layer 2" xmlns="http://www.w3.org/2000/svg" viewBox="0 0 285.51 134.44">
  <defs>
    <style>
      .cls-1 {
        fill: #f2f1f1;
      }
    </style>
  </defs>
  <g id="Layer_1-2" data-name="Layer 1">
    <g>
      <path class="cls-1" d="M208.36,67.46c9.52-11.14,15.49-25.82,15.49-39.38,0-17.27-9.68-28.08-25.66-28.08-14.2,0-26.47,7.75-36.31,18.56l4.68-17.27h-18.88l-11.64,42.69c-8.68,11.85-19.16,22.84-39.04,23.48,9.52-11.14,15.49-25.82,15.49-39.38,0-17.27-9.68-28.08-25.66-28.08-14.2,0-26.47,7.75-36.31,18.56L55.2,1.29h-18.88L0,134.44h20.01l18.72-69.24h.16c4.36-15.65,19.85-47.93,40.67-47.93,7.59,0,12.43,5,12.59,14.52.16,11.62-6.94,25.82-16.78,32.76-3.39-.97-6.94-2.1-10.81-3.39-1.78-.64-3.55-.97-5-.97-14.2,0-17.59,23.89,4.2,23.89,4.68,0,9.2-.81,13.4-2.42,5.65,1.13,10.97,1.62,15.98,1.62,14.18,0,25.75-4.12,34.83-9.69l-16.59,60.85h20.01l18.72-69.24h.16c4.36-15.65,19.85-47.93,40.67-47.93,7.59,0,12.43,5,12.59,14.52.16,11.62-6.94,25.82-16.78,32.76-3.39-.97-6.94-2.1-10.81-3.39-1.77-.64-3.55-.97-5-.97-14.2,0-17.59,23.89,4.2,23.89,4.68,0,9.2-.81,13.4-2.42,5.65,1.13,10.98,1.62,15.98,1.62,31.15,0,49.71-19.85,56.97-31.31l-13.88-8.23c-8.71,11.94-19.2,23.08-39.22,23.72"/>
      <path class="cls-1" d="M274.52,61.14h-.75c-5.33,0-9.89,3.82-10.82,9.07-1.19,6.73,3.98,12.91,10.82,12.91h.75c5.33,0,9.89-3.82,10.82-9.07h0c1.19-6.73-3.99-12.91-10.82-12.91"/>
    </g>
  </g>
</svg>