<svg xmlns="http://www.w3.org/2000/svg" width="136" height="64" viewBox="0 0 136 64" fill="currentColor">
<path d="M99.0407 32.0675C103.567 26.7748 106.405 19.7928 106.405 13.349C106.405 5.14078 101.803 -1.41242e-05 94.2074 -1.41242e-05C87.4569 -1.41242e-05 81.6266 3.68234 76.9466 8.82313L79.1712 0.614884H70.1954L64.6613 20.9065C60.5358 26.5391 55.5533 31.7629 46.1061 32.0675C50.632 26.7748 53.4708 19.7928 53.4708 13.349C53.4708 5.14078 48.8675 -1.41242e-05 41.2727 -1.41242e-05C34.5222 -1.41242e-05 28.6919 3.68234 24.012 8.82313L26.2366 0.614884H17.2608L0 63.9043H9.51262L18.4118 30.9939H18.4884C20.5597 23.5525 27.9244 8.20894 37.8204 8.20894C41.4261 8.20894 43.7281 10.5869 43.8048 15.1135C43.8815 20.637 40.5059 27.3883 35.8259 30.6865C34.2155 30.2263 32.527 29.6895 30.6858 29.0761C29.8422 28.7693 28.9987 28.6152 28.3078 28.6152C21.5573 28.6152 19.9462 39.969 30.3023 39.969C32.527 39.969 34.6756 39.5856 36.6701 38.8187C39.3548 39.3555 41.8869 39.5856 44.2649 39.5856C51.0069 39.5856 56.5044 37.6269 60.8228 34.9809L52.9347 63.9043H62.4473L71.3464 30.9939H71.4231C73.4943 23.5525 80.859 8.20894 90.7558 8.20894C94.3607 8.20894 96.6627 10.5869 96.7394 15.1135C96.8161 20.637 93.4405 27.3883 88.7612 30.6865C87.1501 30.2263 85.4623 29.6895 83.6211 29.0761C82.7769 28.7693 81.9333 28.6152 81.2425 28.6152C74.4919 28.6152 72.8808 39.969 83.2377 39.969C85.4623 39.969 87.6102 39.5856 89.6048 38.8187C92.2895 39.3555 94.8216 39.5856 97.1995 39.5856C112.006 39.5856 120.828 30.1497 124.28 24.7028L117.683 20.7904C113.54 26.4673 108.553 31.7608 99.0407 32.0675Z" fill="#F1F1F1"/>
<path d="M130.484 29.0612H130.128C127.594 29.0612 125.427 30.8791 124.984 33.3732C124.416 36.5736 126.878 39.5095 130.128 39.5095H130.484C133.017 39.5095 135.185 37.6916 135.627 35.1975C136.195 31.9971 133.734 29.0612 130.484 29.0612Z" fill="#F1F1F1"/>
</svg>
